HIERARCHY
ROOT Hips
{
     OFFSET 1.88212 96.90440 -13.34250
     CHANNELS 6 Xposition Yposition Zposition Zrotation Xrotation Yrotation
     JOINT Spine
     {
          OFFSET 0.00000 11.89050 0.00000
          CHANNELS 3 Zrotation Xrotation Yrotation
          JOINT Spine1
          {
               OFFSET -0.00000 25.65740 0.12766
               CHANNELS 3 Zrotation Xrotation Yrotation
               JOINT HEad
               {
                    OFFSET 0.00000 8.73416 0.01134
                    CHANNELS 3 Zrotation Xrotation Yrotation
                    End Site
                    {
                         OFFSET -0.29000 12.77420 2.51395
                    }
               }
               JOINT LeftShoulder1
               {
                    OFFSET 8.99000 -0.36225 -0.22000
                    CHANNELS 3 Zrotation Xrotation Yrotation
                    JOINT LeftArm
                    {
                         OFFSET 10.28270 -0.00338 0.32212
                         CHANNELS 3 Zrotation Xrotation Yrotation
                         JOINT LeftForeArm
                         {
                              OFFSET 32.76690 0.09914 -1.42434
                              CHANNELS 3 Zrotation Xrotation Yrotation
                              JOINT LeftHand
                              {
                                   OFFSET 27.56430 0.08536 1.02216
                                   CHANNELS 3 Zrotation Xrotation Yrotation
                                   End Site
                                   {
                                        OFFSET 16.74430 -0.60000 1.50291
                                   }
                              }
                         }
                    }
               }
               JOINT RightShoulder
               {
                    OFFSET -8.99000 -0.36225 -0.22000
                    CHANNELS 3 Zrotation Xrotation Yrotation
                    JOINT RightArm
                    {
                         OFFSET -10.28270 -0.00338 0.32212
                         CHANNELS 3 Zrotation Xrotation Yrotation
                         JOINT RightForeArm
                         {
                              OFFSET -32.89710 0.09914 -1.42434
                              CHANNELS 3 Zrotation Xrotation Yrotation
                              JOINT RightHand
                              {
                                   OFFSET -27.49210 0.08536 1.02216
                                   CHANNELS 3 Zrotation Xrotation Yrotation
                                   End Site
                                   {
                                        OFFSET -16.63120 -0.60000 1.50291
                                   }
                              }
                         }
                    }
               }
          }
     }
     JOINT LeftUpLeg
     {
          OFFSET 8.94580 -8.66707 0.10165
          CHANNELS 3 Zrotation Xrotation Yrotation
          JOINT LeftLeg
          {
               OFFSET 0.00000 -44.42270 1.37270
               CHANNELS 3 Zrotation Xrotation Yrotation
               JOINT LeftFoot
               {
                    OFFSET -0.25355 -42.09240 -1.46059
                    CHANNELS 3 Zrotation Xrotation Yrotation
                    JOINT LeftToes
                    {
                         OFFSET -0.04000 -4.41509 8.49910
                         CHANNELS 3 Zrotation Xrotation Yrotation
                         End Site
                         {
                              OFFSET 0.08000 -0.04745 9.77979
                         }
                    }
               }
          }
     }
     JOINT RightUpLeg
     {
          OFFSET -8.94580 -8.66707 0.10165
          CHANNELS 3 Zrotation Xrotation Yrotation
          JOINT RightLeg
          {
               OFFSET 0.00000 -44.42270 1.37270
               CHANNELS 3 Zrotation Xrotation Yrotation
               JOINT RightFoot
               {
                    OFFSET 0.25355 -42.09240 -1.46059
                    CHANNELS 3 Zrotation Xrotation Yrotation
                    JOINT RightToes
                    {
                         OFFSET 0.04000 -4.41509 8.49910
                         CHANNELS 3 Zrotation Xrotation Yrotation
                         End Site
                         {
                              OFFSET -0.08000 -0.13745 9.77979
                         }
                    }
               }
          }
     }
}
MOTION
Frames: 17
Frame Time: 0.01667
44.60893 78.88288 -121.76598 1.44399 -8.37429 -25.64572 -10.87897 36.43762 5.69632 -0.04240 0.08316 0.00966 -20.50503 2.48120 18.76444 -21.26538 33.96926 7.03631 -110.43870 -59.20671 -87.03400 -34.06404 55.55739 -101.53043 6.98282 1.66259 1.50789 -11.74706 28.06581 8.72264 75.26949 -22.40794 71.88721 35.40031 46.41634 94.27218 -5.11040 10.46140 1.32637 16.86030 -27.80359 14.22861 23.85144 40.24134 -16.55826 16.63854 -0.05589 0.06510 -41.42961 -13.01120 0.38316 -19.93589 -34.68519 -10.30209 -29.17307 60.83221 43.24714 19.16215 0.01839 0.06220 -15.51913 -33.98682 -3.12012 
44.93671 75.63545 -122.48759 1.20456 -6.54629 -21.89445 -10.84502 40.63004 3.24809 -0.04262 0.07072 0.00409 -18.98521 -0.80847 17.64962 -18.80369 29.52737 5.59759 -107.56863 -58.88470 -83.37627 -32.70954 55.05320 -102.98244 4.34411 9.35897 -1.87075 -8.49859 24.53761 7.83616 73.18384 -21.59809 70.14506 34.24438 46.16944 95.72092 -6.13021 15.01718 4.94546 16.70607 -35.79906 11.80279 29.14278 45.98810 -19.78209 19.71331 -0.05122 0.06895 -47.11286 -17.45527 -1.25101 -22.53208 -40.11137 -13.31054 -36.94696 68.31859 49.93133 21.58077 0.02067 0.06024 -18.42284 -37.59945 -2.87885 
45.29519 72.00131 -123.43377 0.97037 -5.09871 -18.52395 -11.83223 45.12573 2.35250 -0.04034 0.06304 0.00177 -16.93651 -4.13669 16.18943 -15.83568 25.12185 4.29478 -105.32890 -58.45244 -80.96008 -32.32588 54.74598 -103.88513 5.59960 4.75105 -1.14878 -4.75834 20.89120 6.74491 71.76320 -20.97327 69.16151 32.90231 46.15112 97.71443 -5.37429 13.09360 3.99063 16.59701 -44.52629 10.00956 36.73752 52.20584 -26.43710 22.26926 -0.02898 0.05404 -52.45065 -16.67043 -4.96827 -26.02280 -45.64241 -15.54599 -50.87589 75.89792 62.86943 24.23263 0.02565 0.06096 -21.74485 -41.35425 -2.91442 
45.61502 68.15244 -124.52864 0.78647 -3.97006 -15.50170 -13.96984 49.73530 3.08971 -0.04073 0.05655 -0.00001 -14.53039 -7.46167 14.52618 -12.60441 20.82971 3.15813 -103.58299 -57.90575 -79.44885 -32.37286 54.69648 -104.68816 4.43326 9.40054 -2.63853 -0.46958 17.26132 5.48971 70.51547 -20.46166 68.68855 31.48630 46.35922 100.06186 -5.81798 14.95579 5.30170 16.92009 -53.55180 9.21604 46.77480 58.06898 -36.83760 24.81626 -0.01699 0.04768 -57.40763 -18.73166 -7.35224 -30.38092 -50.94576 -17.09441 -85.18684 81.94797 96.44544 27.16468 0.03122 0.05900 -24.88186 -44.48116 -3.28987 
45.85150 64.18890 -125.66138 0.68457 -3.11180 -12.79118 -17.59535 54.24533 5.70254 -0.04429 0.04969 -0.00195 -11.86791 -10.72441 12.75951 -9.14309 16.60919 2.12606 -102.15066 -57.36291 -78.49189 -32.72488 54.71261 -105.38293 5.52098 6.90769 -1.77817 3.82814 13.63564 4.56595 69.67177 -20.18948 68.44247 30.08008 46.70970 102.56590 -5.21344 13.31554 3.97590 16.58646 -61.73320 8.37940 58.79189 62.19828 -49.51154 27.35055 -0.00870 0.03683 -61.18129 -18.94884 -9.40330 -35.33832 -55.66421 -17.87796 -146.82089 81.84541 157.68622 30.41342 0.03555 0.05372 -27.92322 -47.20829 -3.60204 
45.98814 60.04240 -126.66859 0.70472 -2.50400 -10.31771 -23.15022 58.35411 10.66234 -0.04718 0.03819 0.00499 -10.43208 -13.95083 11.24688 -5.67865 12.55895 1.30336 -100.64149 -56.49446 -77.69225 -33.08818 54.71729 -106.00808 5.32435 9.60029 -1.90926 8.09578 10.19159 3.82987 66.30075 -16.93527 69.00027 26.54088 43.30161 105.69540 -5.29678 13.50418 4.37334 15.73332 -68.99722 7.48950 71.50121 64.49965 -63.21114 29.76464 -0.00499 0.02297 -64.87277 -19.64335 -10.86069 -40.71653 -59.37659 -18.99913 -172.90094 76.66203 183.77946 34.03671 0.03984 0.04919 -31.32144 -49.32987 -5.15598 
46.00561 56.12815 -127.50308 0.87152 -2.13067 -8.05933 -31.09501 61.67812 18.33954 -0.04980 0.02259 0.00065 -8.71505 -16.79817 9.39378 -1.96311 8.76208 0.41924 -99.32520 -55.56742 -77.09167 -33.42394 54.58575 -106.60020 6.08387 8.48938 -1.28018 5.34935 12.24975 12.17248 71.37547 -24.75071 71.80066 23.92406 41.82394 109.31650 -5.17375 12.57911 2.95596 14.48915 -75.21393 6.58776 82.92117 65.29461 -75.93458 31.96531 -0.00388 0.01022 -67.55795 -19.73476 -11.65368 -46.11418 -62.11757 -20.12419 -181.32921 71.39048 192.52106 37.95784 0.04413 0.04304 -34.94335 -51.43378 -6.50572 
45.92535 52.51607 -128.10405 1.18631 -1.95650 -5.99354 -41.47919 63.69973 28.74043 -0.05833 0.00998 0.00249 -6.66479 -19.17661 7.25719 2.03608 5.28132 -0.53183 -98.07620 -54.59198 -76.54294 -33.67069 54.37476 -107.22571 5.80716 10.17846 -0.98521 10.93640 8.71565 10.01987 68.93864 -22.84803 70.75911 22.18742 41.41914 112.78465 -5.41253 12.49512 2.50371 13.08473 -80.33771 5.81579 91.74784 65.24886 -86.33020 33.92237 -0.00365 0.00102 -69.84258 -19.59736 -11.93619 -51.01622 -63.99972 -20.82477 -184.70219 66.90247 196.36346 42.05764 0.04818 0.03553 -39.06971 -53.32018 -8.52337 
45.76652 49.26945 -128.45369 1.63193 -1.93998 -4.09511 -50.24319 64.39865 37.68759 0.03595 -0.03816 -0.02835 -5.43880 -20.55427 5.42539 4.86998 2.83276 -1.17423 -96.91763 -53.51681 -76.17199 -33.86123 54.07622 -107.79802 6.25253 9.52700 -0.52374 14.85654 6.14590 8.42750 67.61842 -21.69965 70.05502 21.28579 41.46112 115.59209 8.02874 -0.99143 7.54080 20.64569 -83.95675 13.97246 96.53727 65.38197 -93.72216 35.79699 -0.00461 -0.00362 -71.59347 -19.51020 -11.96870 -54.97707 -65.18007 -20.73560 -186.18323 63.21677 198.33655 46.22752 0.05205 0.02839 -42.92241 -54.76849 -10.40331 
45.55750 46.42452 -128.56148 2.17559 -2.03337 -2.35006 -56.64744 64.26032 44.38484 0.03687 -0.03444 -0.02844 -4.70909 -21.13758 3.79823 6.91687 1.16460 -1.67190 -95.78618 -52.38303 -75.84859 -33.98386 53.70284 -108.32512 6.08358 10.65268 -0.08164 17.73532 4.36846 7.21547 66.91640 -21.16629 69.60308 21.00216 41.72074 117.72558 0.15051 8.77026 1.80862 46.27229 -85.70262 40.08969 98.76221 66.21721 -99.14185 37.66301 -0.00513 -0.00495 -72.75087 -19.43365 -11.70186 -57.90232 -65.87270 -19.82922 -186.51053 60.01647 199.15271 50.44681 0.06090 0.02670 -75.91154 -53.88091 -41.87810 
45.38754 44.10313 -128.44157 2.79257 -2.22999 -0.74473 -60.71119 63.68192 48.80686 0.03197 -0.02840 -0.02721 -4.39223 -21.04731 2.41227 8.28743 0.22704 -2.08993 -94.71084 -51.18748 -75.57154 -33.99858 53.26780 -108.80764 6.19801 10.28287 0.24981 19.65046 3.30435 6.11266 66.75822 -20.77492 69.34742 20.78164 42.34728 119.58615 4.19268 2.18113 3.99344 81.14056 -85.94715 75.54769 105.01425 68.50628 -107.87688 40.92545 -0.00181 0.02127 -73.91647 -19.86470 -12.12036 -57.86917 -65.41985 -16.26403 -187.00485 58.09488 199.65910 54.67657 0.07117 0.02460 -65.13892 -57.34707 -28.71996 
45.35030 42.25989 -128.09886 3.44713 -2.52959 0.73592 -62.79019 62.91764 51.27507 0.03020 -0.02277 -0.02701 -4.78817 -21.83068 1.07000 9.06130 -0.08532 -2.54487 -93.69527 -50.02638 -75.44807 -33.94435 52.75063 -109.12172 5.93857 10.95537 0.60884 21.30525 2.93728 4.95486 65.84644 -19.01961 72.66918 22.10753 40.94157 117.31538 -0.78666 8.16849 0.47022 105.66359 -85.01280 100.70041 111.49043 70.07738 -116.61310 43.28141 0.00390 0.00485 -74.42384 -20.13063 -12.06122 -55.99353 -63.95864 -11.32052 -187.14314 57.04862 199.44536 58.96364 0.08483 0.02356 -74.48154 -58.09628 -36.44180 
45.67963 40.94964 -127.45879 4.11357 -2.93304 2.11665 -63.20841 62.08666 52.11340 0.02945 -0.02220 -0.02731 -5.57391 -23.32674 -0.34538 0.00185 -7.14176 -0.38294 -80.81273 -43.79650 -71.13040 -36.43296 52.78409 -103.24551 5.80916 10.94352 0.37385 15.05629 -2.09402 11.21564 70.97151 -22.22927 70.79275 23.13035 43.26779 117.10038 10.51003 3.55251 13.02076 117.44919 -83.71013 113.13631 123.66017 71.69931 -130.33302 46.54851 0.01229 0.03419 -75.00890 -21.31278 -12.79906 -53.65257 -61.51035 -6.39358 -186.50616 56.72208 198.30292 63.40596 0.10136 0.01899 -74.09210 -60.23428 -33.46442 
46.24371 40.11620 -126.67899 4.79736 -3.46150 3.40557 -62.48643 61.23021 51.83502 0.02338 -0.01280 -0.01858 -6.43645 -25.50529 -1.83639 0.96074 -5.79928 -0.49612 -84.49426 -42.03424 -75.71299 -37.86497 52.48193 -100.25184 5.38312 11.57499 0.82931 16.56261 -1.05526 10.07138 70.04811 -21.30892 74.01891 24.21070 44.72732 117.29161 -0.41132 7.24475 -2.79278 114.61821 -82.72282 110.98028 132.39871 72.97581 -140.63675 48.88997 0.01331 0.01344 -74.93896 -21.89868 -13.08582 -51.51198 -58.20666 -2.18991 -185.04256 57.02725 196.17366 67.95135 0.11167 0.00872 -79.00305 -62.02249 -35.96701 
47.04521 39.71111 -125.77269 5.48057 -4.09459 4.60713 -60.91421 60.33607 50.69491 0.01758 -0.00456 -0.01657 -7.11189 -28.34082 -3.36377 1.59844 -4.28216 -0.81417 -86.66560 -40.92439 -78.47965 -38.46374 52.07412 -99.02926 5.06068 11.35008 0.74531 17.81503 0.07823 9.04653 69.37252 -20.99451 75.75566 24.84789 45.91135 118.03899 2.87022 6.41540 4.53350 105.41431 -82.20915 102.51064 139.70076 74.19115 -149.21684 50.69650 0.00896 0.00849 -74.55310 -22.65210 -13.37065 -49.81527 -54.22715 0.99280 -182.86359 57.90393 193.09116 72.48871 0.11097 -0.00475 -81.22845 -64.08797 -35.26351 
48.09844 39.71537 -124.78728 6.14402 -4.80604 5.72590 -58.68552 59.36852 48.86808 0.01658 0.00051 -0.01501 -7.37983 -31.79324 -4.85147 1.71576 -2.64667 -0.96382 -90.78484 -38.34555 -85.09116 -41.25449 51.55349 -93.06482 4.75995 11.44912 1.04257 19.28570 1.40852 8.13760 71.10441 -21.65407 81.01781 29.87502 47.53590 112.66860 -3.66772 8.63350 -3.69735 92.43008 -82.00826 90.36764 146.75708 75.21370 -157.06052 52.14775 0.00828 0.00829 -73.84342 -23.32978 -13.62749 -48.58066 -49.72240 3.12158 -180.03165 59.35756 189.07971 76.94299 0.09880 -0.01809 -83.73393 -65.79478 -35.10627 
49.34301 40.11428 -123.77570 6.78477 -5.59227 6.74827 -56.04629 58.31298 46.56272 0.01439 0.00605 -0.01334 -7.02728 -35.68620 -6.35240 1.78463 -0.83982 -1.27115 -93.06515 -36.75597 -88.60860 -42.29823 51.42070 -90.45082 12.16621 19.98698 -17.54161 20.49747 2.88959 7.25859 72.21884 -22.15767 83.71422 32.58494 49.03825 110.39138 -0.99311 8.53417 0.69484 76.20550 -81.83047 75.13169 153.70161 75.91858 -164.22153 53.29990 0.00844 0.00841 -73.03793 -24.39714 -14.05395 -47.70753 -44.83126 4.32854 -176.47801 61.40369 184.06425 81.26985 0.07744 -0.02887 -85.77173 -67.32378 -34.04576 
